<?xml version="1.0" encoding="utf-8"?>
<svg viewBox="0 0 500 500" xmlns="http://www.w3.org/2000/svg">
  <g transform="matrix(-2.759999990463257, 0, 0, 2.759999990463257, 250.1793518066406, 250.32000732421875)" style="">
    <g style="">
      <g transform="matrix(0.07 0 0 -0.07 0 0)">
        <path style="stroke: none; stroke-width: 1; stroke-dasharray: none; stroke-linecap: butt; stroke-dashoffset: 0; stroke-linejoin: miter; stroke-miterlimit: 4; fill: rgb(0,0,0); fill-rule: nonzero; opacity: 1;" transform=" translate(-2123.02, -1069.39)" d="M 2368 2125 c -76 -25 -143 -85 -259 -231 c -61 -77 -145 -182 -187 -234 c -81 -100 -316 -341 -350 -359 c -19 -10 -21 -8 -26 36 c -21 182 -58 285 -126 353 c -68 68 -116 85 -240 84 c -122 0 -169 -16 -200 -66 c -43 -67 -12 -225 81 -410 c 46 -91 47 -108 19 -303 c -11 -77 -20 -157 -20 -177 c 0 -31 -4 -38 -20 -38 c -10 0 -37 -17 -59 -38 c -48 -46 -65 -101 -59 -198 c 4 -61 12 -84 58 -172 c 98 -187 228 -323 344 -357 c 91 -27 151 -15 195 40 l 20 26 l 99 -12 c 125 -15 260 -1 384 41 c 152 51 238 101 433 255 c 81 64 277 166 555 289 c 261 116 270 121 299 179 c 41 84 3 162 -101 207 c -73 31 -130 29 -332 -13 c -98 -21 -180 -36 -183 -34 c -7 8 208 160 357 252 c 116 71 157 108 181 160 c 25 55 24 92 -7 153 c -55 110 -215 173 -351 139 c -49 -13 -265 -127 -431 -229 c -32 -20 -32 -19 24 68 c 32 49 89 131 128 183 c 115 153 119 158 124 210 c 7 75 -35 143 -113 184 c -52 27 -171 33 -237 12 z m 203 -70 c 72 -37 100 -84 80 -137 c -5 -15 -45 -73 -88 -130 c -107 -141 -388 -564 -414 -624 c -30 -70 -51 -130 -41 -119 c 5 6 26 35 47 65 c 100 142 153 196 253 257 c 154 96 424 248 461 261 c 19 7 59 12 90 12 c 136 0 263 -120 218 -207 c -20 -38 -46 -60 -157 -128 c -356 -220 -580 -414 -667 -579 c -19 -37 -13 -33 114 80 c 118 103 116 103 288 129 c 61 9 159 28 219 42 c 128 30 197 28 244 -6 c 49 -34 55 -98 14 -139 c -10 -10 -114 -60 -232 -111 c -366 -159 -528 -247 -650 -351 c -114 -98 -248 -169 -395 -212 c -66 -19 -104 -23 -215 -23 c -170 0 -234 17 -316 84 c -83 66 -188 201 -242 310 c -46 91 -47 96 -50 202 c -3 72 3 164 18 280 c 12 96 19 187 15 207 c -4 20 -26 75 -51 124 c -53 106 -94 224 -94 272 c 0 22 9 45 24 63 c 24 27 27 28 128 28 c 91 0 108 -3 148 -25 c 98 -55 146 -167 158 -365 c 9 -150 16 -157 99 -95 c 142 107 334 312 542 580 c 164 209 197 240 291 271 c 36 12 122 3 161 -16 z m -1501 -1410 c 7 -35 25 -91 40 -124 c 63 -133 200 -303 303 -377 c 29 -21 54 -39 56 -41 c 3 -2 -2 -11 -11 -20 c -23 -22 -85 -20 -141 5 c -86 38 -218 186 -286 320 c -54 106 -62 223 -20 276 c 32 41 45 33 59 -39 z" stroke-linecap="round"/>
      </g>
      <g transform="matrix(0.07 0 0 -0.07 -52.08 28.06)">
        <path style="stroke: none; stroke-width: 1; stroke-dasharray: none; stroke-linecap: butt; stroke-dashoffset: 0; stroke-linejoin: miter; stroke-miterlimit: 4; fill: rgb(0,0,0); fill-rule: nonzero; opacity: 1;" transform=" translate(-1385.99, -672.31)" d="M 1365 693 c -64 -60 -114 -114 -113 -122 c 6 -30 34 -35 64 -12 c 77 60 204 184 204 200 c 0 18 -18 41 -32 41 c -4 0 -60 -48 -123 -107 z" stroke-linecap="round"/>
      </g>
      <g transform="matrix(0.07 0 0 -0.07 -38.68 36.38)">
        <path style="stroke: none; stroke-width: 1; stroke-dasharray: none; stroke-linecap: butt; stroke-dashoffset: 0; stroke-linejoin: miter; stroke-miterlimit: 4; fill: rgb(0,0,0); fill-rule: nonzero; opacity: 1;" transform=" translate(-1575.59, -554.62)" d="M 1658 648 c -46 -34 -127 -90 -180 -125 c -107 -70 -111 -74 -102 -96 c 12 -31 37 -27 110 20 c 116 73 289 206 292 225 c 2 9 -6 21 -17 27 c -16 9 -32 1 -103 -51 z" stroke-linecap="round"/>
      </g>
      <g transform="matrix(0.07 0 0 -0.07 -33.56 48.67)">
        <path style="stroke: none; stroke-width: 1; stroke-dasharray: none; stroke-linecap: butt; stroke-dashoffset: 0; stroke-linejoin: miter; stroke-miterlimit: 4; fill: rgb(0,0,0); fill-rule: nonzero; opacity: 1;" transform=" translate(-1648.18, -380.59)" d="M 1725 443 c -27 -14 -90 -41 -140 -58 c -98 -36 -120 -55 -93 -81 c 15 -15 22 -14 101 11 c 46 15 115 44 153 64 c 57 30 69 40 69 61 c 0 35 -28 36 -90 3 z" stroke-linecap="round"/>
      </g>
    </g>
  </g>
</svg>